<svg width="28" height="28" viewBox="0 0 28 28" fill="none" xmlns="http://www.w3.org/2000/svg">
<path d="M11.552 15.4761L13.9747 16.8747L16.468 15.4347V12.6801L13.9467 11.2267L11.552 12.7227V15.4761ZM8.88535 13.9361V4.63741C6.40844 5.9933 4.56837 8.27386 3.76669 10.9814L8.88669 13.9361H8.88535ZM3.33469 13.8107L3.33335 14.0001C3.32942 16.7283 4.37492 19.3535 6.25335 21.3321L11.3067 18.4134L3.33469 13.8107ZM11.552 9.57875L19.296 4.73875C17.684 3.81501 15.8579 3.33043 14 3.33341C13.1574 3.33341 12.3387 3.43075 11.552 3.61608V9.57875ZM21.556 6.47208L16.508 9.62541L24.6614 14.3334C24.7088 12.8802 24.4578 11.4326 23.9236 10.0802C23.3895 8.72784 22.5837 7.50071 21.556 6.47208ZM19.1347 14.2214V23.3521C21.5622 22.0164 23.3767 19.7909 24.196 17.1441L19.1347 14.2214ZM8.47735 23.1281C10.1423 24.1377 12.0529 24.67 14 24.6667C14.8494 24.6667 15.676 24.5681 16.4667 24.3801V18.5134L8.47735 23.1267V23.1281ZM14 27.3334C6.63602 27.3334 0.666687 21.3641 0.666687 14.0001C0.666687 6.63608 6.63602 0.666748 14 0.666748C21.364 0.666748 27.3334 6.63608 27.3334 14.0001C27.3334 21.3641 21.364 27.3334 14 27.3334Z" fill="white"/>
</svg>
